<?xml version="1.0" encoding="UTF-8"?>
<svg viewBox="0 0 119 41" version="1.1" xmlns="http://www.w3.org/2000/svg" xmlns:xlink="http://www.w3.org/1999/xlink">
    <title>logo intime</title>
    <desc>Created with Sketch.</desc>
    <defs></defs>
    <g id="Symbols" stroke="none" stroke-width="1" fill="none" fill-rule="evenodd">
        <g id="logo" transform="translate(-20.000000, -20.000000)">
            <g id="logo-intime" transform="translate(20.000000, 20.000000)">
                <polygon id="Page-1" fill="#FCB614" points="14.9432932 0.221329641 0.326284464 14.8383384 0.326284464 40.0052999 31.8833288 39.9771542 46.5398756 25.4532943 46.5539484 0.758108662 46.5539484 0.221329641"></polygon>
                <path d="M87.6379788,18.9520361 L83.0240732,27.6018513 L83.0240732,18.4484681 L76.9289829,18.4484681 L76.9289829,36.4406715 L82.6095963,36.4406715 C82.9590178,36.4406715 83.2816122,36.2533362 83.4536402,35.9504608 L88.2486279,27.293633 L88.2486279,36.4406715 L94.3376822,36.4406715 L94.3376822,18.4484681 L88.4897354,18.4484681 C88.1346133,18.4484681 87.8079948,18.6414802 87.6379788,18.9520361 Z M85.5275672,16.7553376 C82.4424642,16.7553376 79.9324647,14.4228294 79.9324647,11.4207896 L83.700985,11.4207896 C83.700985,12.5150815 84.2241112,13.4848172 85.5275672,13.4848172 C86.877635,13.4848172 87.353814,12.5150815 87.353814,11.4207896 L91.1223343,11.4207896 C91.1223343,14.4228294 88.6123347,16.7553376 85.5275672,16.7553376 Z M57.4432716,18.4484347 L52.6962371,18.4484347 L46.4817667,18.4484347 L41.6596167,18.4484347 L41.6596167,23.825392 L46.4361609,23.825392 L46.4361609,36.4406382 L52.6667274,36.4406382 L52.6667274,23.825392 L57.4432716,23.825392 L57.4432716,18.4484347 Z M69.8414284,36.4407383 L75.7614726,36.4407383 L69.2794031,18.9617869 C69.1650531,18.6532346 68.869621,18.4485349 68.5393137,18.4485349 L62.6735941,18.4485349 C62.3429516,18.4485349 62.0478548,18.6532346 61.9331694,18.9617869 L55.4510999,36.4407383 L61.3711441,36.4407383 C61.5468609,36.4407383 61.7024574,36.3282036 61.7571174,36.1622399 L62.4150491,34.1656663 L68.7975234,34.1656663 L69.4554552,36.1622399 C69.5101152,36.3285375 69.6657116,36.4407383 69.8414284,36.4407383 Z M63.8459332,29.659935 L65.6061186,24.3170387 L67.3666393,29.659935 L63.8459332,29.659935 Z M112.236577,18.8962362 L107.916763,26.1919612 L103.596948,18.8962362 C103.432633,18.6187395 103.133176,18.4484347 102.809576,18.4484347 L97.1175611,18.4484347 L97.1175611,36.4406382 L103.347792,36.4406382 L103.347792,27.9447651 L106.120361,32.486227 C106.208219,32.6301513 106.365157,32.7183091 106.534167,32.7183091 L109.301035,32.7183091 C109.47038,32.7183091 109.627318,32.6301513 109.715177,32.486227 L112.485733,27.9447651 L112.485733,36.4406382 L118.715964,36.4406382 L118.715964,18.4484347 L113.023949,18.4484347 C112.700349,18.4484347 112.400893,18.6187395 112.236577,18.8962362 Z M12.9340557,18.4407543 L18.9593958,18.4407543 L18.9593958,24.8545674 L23.9458611,24.8545674 L23.9458611,18.4407543 L29.9712013,18.4407543 L29.9712013,36.4409721 L23.9458611,36.4409721 L23.9458611,30.0271589 L18.9593958,30.0271589 L18.9593958,36.4409721 L12.9340557,36.4409721 L12.9340557,18.4407543 Z M4,36.4408051 L10.440823,36.4408051 L10.440823,18.4405873 L4,18.4405873 L4,36.4408051 Z" id="Combined-Shape" fill="#221F20"></path>
            </g>
        </g>
    </g>
</svg>